<svg width="100" height="100" viewBox="0 0 100 100" fill="none" xmlns="http://www.w3.org/2000/svg">
<rect width="100" height="100" fill="#1E1E1E"/>
<g clip-path="url(#clip0_0_1)">
<rect width="100" height="100" fill="white"/>
<rect width="100" height="100" fill="white"/>
<path d="M41.3242 31.9302C40.8994 33.1606 40.5405 34.5742 40.2476 36.1709C39.9546 37.7529 39.8081 39.4961 39.8081 41.4004C39.8081 42.748 39.8521 44.1104 39.9399 45.4873C40.0278 46.8643 40.1011 48.3438 40.1597 49.9258C40.5112 49.7354 40.8188 49.6401 41.0825 49.6401C41.2876 49.6401 41.4707 49.7134 41.6318 49.8599C41.793 49.9917 41.8735 50.1675 41.8735 50.3872C41.8735 50.7095 41.7271 50.9512 41.4341 51.1123C41.1411 51.2588 40.7236 51.4492 40.1816 51.6836V53.5952C40.1816 56.9351 39.9839 59.9966 39.5884 62.7798C39.2075 65.5776 38.585 67.98 37.7207 69.9868C36.8564 72.0083 35.7139 73.583 34.293 74.7109C32.8867 75.8389 31.1655 76.4028 29.1294 76.4028C28.2651 76.4028 27.4155 76.2344 26.5806 75.8975C25.7456 75.5752 24.9985 75.0771 24.3394 74.4033C23.6948 73.7295 23.1675 72.8872 22.7573 71.8765C22.3618 70.8804 22.1641 69.7085 22.1641 68.3608C22.1641 66.8813 22.4351 65.4678 22.9771 64.1201C23.5337 62.7871 24.2588 61.5347 25.1523 60.3628C26.0605 59.1763 27.0933 58.085 28.2505 57.0889C29.4077 56.0781 30.5869 55.1626 31.7881 54.3423C33.0039 53.522 34.1978 52.8042 35.3696 52.189C36.5415 51.5737 37.5889 51.0684 38.5117 50.6729C38.4824 49.1641 38.4165 47.6553 38.314 46.1465C38.2114 44.623 38.1602 43.063 38.1602 41.4663C38.1602 39.9722 38.248 38.5366 38.4238 37.1597C38.6143 35.7681 38.8706 34.4717 39.1929 33.2705C38.6216 33.5928 37.9917 33.8931 37.3032 34.1714C36.6294 34.4497 35.9189 34.7134 35.1719 34.9624C34.4248 35.2114 33.6558 35.4531 32.8647 35.6875C32.0884 35.9219 31.3193 36.1489 30.5576 36.3687C29.4004 36.7056 28.3457 37.0791 27.3936 37.4893C26.4561 37.8848 25.6504 38.3462 24.9766 38.8735C24.3027 39.4009 23.7754 40.0015 23.3945 40.6753C23.0283 41.3491 22.8452 42.1255 22.8452 43.0044C22.8452 44.0298 23.043 44.9014 23.4385 45.6191C23.834 46.3369 24.3467 46.9229 24.9766 47.377C25.6211 47.8164 26.3389 48.1387 27.1299 48.3438C27.9355 48.5342 28.7339 48.6294 29.5249 48.6294C29.7593 48.6294 29.9497 48.71 30.0962 48.8711C30.2573 49.0322 30.3379 49.23 30.3379 49.4644C30.3379 49.6987 30.25 49.8965 30.0742 50.0576C29.9131 50.2041 29.73 50.2773 29.5249 50.2773C28.5288 50.2773 27.5327 50.1382 26.5366 49.8599C25.5552 49.5669 24.6689 49.1274 23.8779 48.5415C23.0869 47.9409 22.4424 47.1865 21.9443 46.2783C21.4463 45.3701 21.1973 44.3008 21.1973 43.0703C21.1973 42.001 21.4097 41.0488 21.8345 40.2139C22.2739 39.3643 22.8818 38.6099 23.6582 37.9507C24.4346 37.2915 25.3721 36.7129 26.4707 36.2148C27.5693 35.7168 28.7852 35.2773 30.1182 34.8965C31.085 34.6182 32.0444 34.3252 32.9966 34.0176C33.9487 33.71 34.8496 33.395 35.6992 33.0728C36.5635 32.7358 37.3545 32.3916 38.0723 32.04C38.79 31.6738 39.4053 31.293 39.918 30.8975C40.5039 29.2568 41.1338 27.9971 41.8076 27.1182C42.4814 26.2246 43.126 25.7778 43.7412 25.7778C43.873 25.7778 44.0122 25.8071 44.1587 25.8657C44.3198 25.9097 44.4663 25.9902 44.5981 26.1074C44.7446 26.21 44.8618 26.3564 44.9497 26.5469C45.0376 26.7373 45.0815 26.9717 45.0815 27.25C45.0815 27.8945 44.7446 28.627 44.0708 29.4473C43.397 30.2676 42.4814 31.0952 41.3242 31.9302ZM38.5337 52.4087C37.6841 52.7749 36.7319 53.2437 35.6772 53.8149C34.6226 54.3862 33.5459 55.0527 32.4473 55.8145C31.3633 56.5762 30.3013 57.4185 29.2612 58.3413C28.2358 59.2642 27.313 60.2529 26.4927 61.3076C25.687 62.377 25.0352 63.4976 24.5371 64.6694C24.0537 65.856 23.812 67.0791 23.812 68.3389C23.812 69.4082 23.9658 70.3457 24.2734 71.1514C24.5811 71.957 24.9912 72.6309 25.5039 73.1729C26.0312 73.7148 26.6245 74.1177 27.2837 74.3813C27.9575 74.6597 28.646 74.7988 29.3491 74.7988C30.5649 74.7988 31.6343 74.5132 32.5571 73.9419C33.48 73.3853 34.2783 72.6016 34.9521 71.5908C35.6406 70.5947 36.2119 69.4009 36.666 68.0093C37.1201 66.6323 37.4863 65.1089 37.7646 63.439C38.043 61.7837 38.2407 60.0259 38.3579 58.1655C38.4751 56.2905 38.5337 54.3716 38.5337 52.4087ZM80.3916 51.6616C80.377 51.7202 80.2744 51.9692 80.084 52.4087C79.8936 52.8481 79.5713 53.3901 79.1172 54.0347C78.6777 54.6792 78.0918 55.3896 77.3594 56.166C76.627 56.9424 75.7041 57.7041 74.5908 58.4512C73.4775 59.1836 72.1592 59.8574 70.6357 60.4727C69.1123 61.0732 67.3472 61.5347 65.3403 61.8569C63.9927 62.0767 62.5791 62.1865 61.0996 62.1865C59.8691 62.1865 58.6313 62.0986 57.3862 61.9229C56.1558 61.7617 54.9692 61.498 53.8267 61.1318C52.6987 60.7803 51.644 60.3262 50.6626 59.7695C49.6812 59.2129 48.8242 58.5537 48.0918 57.792C47.374 57.0303 46.8027 56.1587 46.3779 55.1772C45.9678 54.1812 45.7627 53.0752 45.7627 51.8594C45.7627 49.7061 46.356 47.853 47.5425 46.3003C48.7437 44.7476 50.5161 43.5391 52.8599 42.6748C52.0249 41.8984 51.4023 41.0415 50.9922 40.104C50.582 39.1665 50.377 38.1924 50.377 37.1816C50.377 35.9219 50.6626 34.7573 51.2339 33.688C51.8198 32.6187 52.6255 31.6958 53.6509 30.9194C54.6763 30.1431 55.8921 29.5425 57.2983 29.1177C58.7192 28.6782 60.272 28.4585 61.9565 28.4585C63.6558 28.4585 65.1353 28.6196 66.395 28.9419C67.6694 29.2642 68.7534 29.667 69.647 30.1504C70.5552 30.6338 71.2949 31.1611 71.8662 31.7324C72.4521 32.3037 72.9136 32.8384 73.2505 33.3364C73.5874 33.8345 73.8218 34.2593 73.9536 34.6108C74.0854 34.9478 74.1587 35.1382 74.1733 35.1821C74.188 35.2407 74.1953 35.3213 74.1953 35.4238C74.1953 35.6289 74.1147 35.8193 73.9536 35.9951C73.8071 36.1562 73.6094 36.2368 73.3604 36.2368C73.1846 36.2368 73.0234 36.1855 72.877 36.083C72.7451 35.9658 72.6499 35.812 72.5913 35.6216C72.5913 35.5923 72.5327 35.4385 72.4155 35.1602C72.2983 34.8672 72.0933 34.5156 71.8003 34.1055C71.5073 33.6953 71.1045 33.2632 70.5918 32.8091C70.0938 32.3403 69.4492 31.9082 68.6582 31.5127C67.8672 31.1025 66.9224 30.7656 65.8237 30.502C64.7251 30.2383 63.436 30.1064 61.9565 30.1064C60.2573 30.1064 58.7778 30.3188 57.5181 30.7437C56.2729 31.1685 55.2402 31.7251 54.4199 32.4136C53.6143 33.0874 53.0137 33.8418 52.6182 34.6768C52.2227 35.5117 52.0249 36.332 52.0249 37.1377C52.0249 38.0898 52.2593 38.998 52.728 39.8623C53.1968 40.7266 53.8706 41.4663 54.7495 42.0815C55.5405 41.8765 56.3169 41.7153 57.0786 41.5981C57.8403 41.481 58.5581 41.3931 59.2319 41.3345C59.9058 41.2612 60.5137 41.2173 61.0557 41.2026C61.6123 41.1733 62.0664 41.1587 62.418 41.1587C63.0625 41.1587 63.6558 41.21 64.1978 41.3125C64.7397 41.4004 65.2012 41.5396 65.582 41.73C65.9775 41.9058 66.2852 42.1401 66.5049 42.4331C66.7246 42.7114 66.8345 43.0337 66.8345 43.3999C66.8345 43.7661 66.7246 44.0957 66.5049 44.3887C66.2852 44.6816 65.9775 44.9307 65.582 45.1357C65.2012 45.3408 64.7397 45.502 64.1978 45.6191C63.6558 45.7217 63.0625 45.7729 62.418 45.7729C61.7148 45.7729 61.0044 45.729 60.2866 45.6411C59.5688 45.5532 58.8657 45.4287 58.1772 45.2676C57.5034 45.1064 56.8516 44.9087 56.2217 44.6743C55.5918 44.4253 55.0205 44.147 54.5078 43.8394C52.1787 44.5425 50.4136 45.5605 49.2124 46.8936C48.0112 48.2119 47.4106 49.8452 47.4106 51.7935C47.4106 52.8481 47.5938 53.8003 47.96 54.6499C48.3408 55.4849 48.8608 56.2246 49.52 56.8691C50.1792 57.5137 50.9482 58.0703 51.8271 58.5391C52.7207 58.9932 53.6729 59.3667 54.6836 59.6597C55.6943 59.9526 56.749 60.1724 57.8477 60.3188C58.9463 60.4507 60.0376 60.5166 61.1216 60.5166C61.8247 60.5166 62.5059 60.4946 63.165 60.4507C63.8242 60.3921 64.4614 60.3115 65.0767 60.209C66.9224 59.916 68.541 59.4912 69.9326 58.9346C71.3389 58.3633 72.5474 57.748 73.5581 57.0889C74.5835 56.415 75.4331 55.7339 76.1069 55.0454C76.7808 54.3423 77.3154 53.7051 77.7109 53.1338C78.1211 52.5479 78.4067 52.0718 78.5679 51.7056C78.7437 51.3394 78.8315 51.1489 78.8315 51.1343C78.8901 50.9585 78.9854 50.8267 79.1172 50.7388C79.2637 50.6362 79.4248 50.585 79.6006 50.585C79.835 50.585 80.0327 50.6655 80.1938 50.8267C80.355 50.9878 80.4355 51.1782 80.4355 51.3979C80.4355 51.4565 80.4209 51.5444 80.3916 51.6616ZM65.1646 43.4219C65.1646 43.3047 65.0693 43.2021 64.8789 43.1143C64.6885 43.0264 64.4395 42.9604 64.1318 42.9165C63.8389 42.8579 63.502 42.8213 63.1211 42.8066C62.7402 42.7773 62.3521 42.7627 61.9565 42.7627C61.0923 42.7627 60.272 42.792 59.4956 42.8506C58.7192 42.8945 57.833 43.0117 56.8369 43.2021C57.5986 43.4805 58.4702 43.7075 59.4517 43.8833C60.4478 44.0444 61.4512 44.125 62.4619 44.125C63.3848 44.125 64.0659 44.0518 64.5054 43.9053C64.9448 43.7588 65.1646 43.5977 65.1646 43.4219Z" fill="#DB2777"/>
<path d="M41.3242 31.9302L41.0317 31.5247L40.9033 31.6173L40.8516 31.767L41.3242 31.9302ZM40.2476 36.1709L40.7392 36.2619L40.7393 36.2611L40.2476 36.1709ZM40.1597 49.9258L39.66 49.9443L39.6898 50.7489L40.3978 50.3654L40.1597 49.9258ZM41.6318 49.8599L41.2955 50.2298L41.3051 50.2386L41.3152 50.2468L41.6318 49.8599ZM41.4341 51.1123L41.6577 51.5595L41.6665 51.5551L41.675 51.5504L41.4341 51.1123ZM40.1816 51.6836L39.9832 51.2247L39.6816 51.3551V51.6836H40.1816ZM39.5884 62.7798L39.0933 62.7094L39.0929 62.7123L39.5884 62.7798ZM37.7207 69.9868L37.2615 69.789L37.261 69.7903L37.7207 69.9868ZM34.293 74.7109L33.9821 74.3193L33.9801 74.3209L34.293 74.7109ZM26.5806 75.8975L26.7677 75.4337L26.7606 75.431L26.5806 75.8975ZM24.3394 74.4033L23.978 74.749L23.9819 74.753L24.3394 74.4033ZM22.7573 71.8765L22.2926 72.061L22.294 72.0645L22.7573 71.8765ZM22.9771 64.1201L22.5156 63.9274L22.5132 63.9336L22.9771 64.1201ZM25.1523 60.3628L24.7553 60.0589L24.7547 60.0596L25.1523 60.3628ZM28.2505 57.0889L28.5767 57.4678L28.5794 57.4655L28.2505 57.0889ZM31.7881 54.3423L31.5084 53.9278L31.5061 53.9294L31.7881 54.3423ZM38.5117 50.6729L38.7087 51.1324L39.0182 50.9998L39.0116 50.6631L38.5117 50.6729ZM38.314 46.1465L37.8151 46.1801L37.8151 46.1804L38.314 46.1465ZM38.4238 37.1597L37.9284 37.0919L37.9279 37.0964L38.4238 37.1597ZM39.1929 33.2705L39.6758 33.4001L39.9844 32.25L38.9472 32.835L39.1929 33.2705ZM37.3032 34.1714L37.1158 33.7078L37.1123 33.7093L37.3032 34.1714ZM32.8647 35.6875L32.7227 35.2081L32.7202 35.2088L32.8647 35.6875ZM30.5576 36.3687L30.419 35.8882L30.4179 35.8886L30.5576 36.3687ZM27.3936 37.4893L27.5879 37.95L27.5914 37.9485L27.3936 37.4893ZM23.3945 40.6753L22.9592 40.4292L22.9552 40.4365L23.3945 40.6753ZM24.9766 47.377L24.6841 47.7827L24.6949 47.7901L24.9766 47.377ZM27.1299 48.3438L27.0044 48.8279L27.0149 48.8303L27.1299 48.3438ZM30.0962 48.8711L29.7262 49.2074L29.7342 49.2162L29.7426 49.2246L30.0962 48.8711ZM30.0742 50.0576L30.4106 50.4276L30.4121 50.4262L30.0742 50.0576ZM26.5366 49.8599L26.3936 50.339L26.4021 50.3414L26.5366 49.8599ZM23.8779 48.5415L23.5756 48.9398L23.5803 48.9433L23.8779 48.5415ZM21.8345 40.2139L21.3904 39.9842L21.3888 39.9871L21.8345 40.2139ZM30.1182 34.8965L30.2555 35.3772L30.2565 35.377L30.1182 34.8965ZM35.6992 33.0728L35.8766 33.5403L35.8808 33.5386L35.6992 33.0728ZM38.0723 32.04L38.2922 32.4891L38.2995 32.4854L38.0723 32.04ZM39.918 30.8975L40.2234 31.2934L40.3395 31.2038L40.3888 31.0656L39.918 30.8975ZM41.8076 27.1182L42.2044 27.4224L42.2068 27.4192L41.8076 27.1182ZM44.1587 25.8657L43.973 26.33L43.9995 26.3406L44.0271 26.3481L44.1587 25.8657ZM44.5981 26.1074L44.266 26.4811L44.2876 26.5004L44.3114 26.517L44.5981 26.1074ZM38.5337 52.4087H39.0337V51.6487L38.3358 51.9495L38.5337 52.4087ZM32.4473 55.8145L32.1624 55.4035L32.1598 55.4054L32.4473 55.8145ZM29.2612 58.3413L28.9294 57.9673L28.9267 57.9697L29.2612 58.3413ZM26.4927 61.3076L26.098 61.0006L26.0933 61.0067L26.4927 61.3076ZM24.5371 64.6694L24.0769 64.4738L24.0741 64.4808L24.5371 64.6694ZM25.5039 73.1729L25.1406 73.5165L25.1455 73.5215L25.5039 73.1729ZM27.2837 74.3813L27.4746 73.9192L27.4694 73.9171L27.2837 74.3813ZM32.5571 73.9419L32.2989 73.5137L32.294 73.5168L32.5571 73.9419ZM34.9521 71.5908L34.5408 71.3065L34.5361 71.3135L34.9521 71.5908ZM36.666 68.0093L36.1912 67.8527L36.1907 67.8542L36.666 68.0093ZM37.7646 63.439L37.2716 63.3561L37.2715 63.3568L37.7646 63.439ZM38.3579 58.1655L38.8569 58.197L38.8569 58.1967L38.3579 58.1655ZM40.8516 31.767C40.4169 33.0262 40.0522 34.465 39.7558 36.0807L40.7393 36.2611C41.0288 34.6834 41.382 33.2951 41.7968 32.0933L40.8516 31.767ZM39.7559 36.0799C39.4565 37.6968 39.3081 39.4709 39.3081 41.4004H40.3081C40.3081 39.5212 40.4527 37.8091 40.7392 36.2619L39.7559 36.0799ZM39.3081 41.4004C39.3081 42.7589 39.3524 44.1318 39.441 45.5192L40.4389 45.4555C40.3517 44.0889 40.3081 42.7372 40.3081 41.4004H39.3081ZM39.441 45.5192C39.5285 46.8911 39.6016 48.3661 39.66 49.9443L40.6593 49.9073C40.6006 48.3214 40.5271 46.8374 40.4389 45.4555L39.441 45.5192ZM40.3978 50.3654C40.7109 50.1959 40.9341 50.1401 41.0825 50.1401V49.1401C40.7036 49.1401 40.3116 49.2749 39.9215 49.4861L40.3978 50.3654ZM41.0825 50.1401C41.155 50.1401 41.2202 50.1614 41.2955 50.2298L41.9682 49.4899C41.7212 49.2654 41.4201 49.1401 41.0825 49.1401V50.1401ZM41.3152 50.2468C41.3531 50.2778 41.3735 50.3079 41.3735 50.3872H42.3735C42.3735 50.0271 42.2328 49.7056 41.9485 49.4729L41.3152 50.2468ZM41.3735 50.3872C41.3735 50.47 41.3556 50.5188 41.3361 50.551C41.316 50.5842 41.2769 50.6281 41.1931 50.6742L41.675 51.5504C41.8842 51.4354 42.0649 51.2779 42.1913 51.0693C42.3182 50.8599 42.3735 50.6266 42.3735 50.3872H41.3735ZM41.2105 50.6651C40.9298 50.8054 40.5223 50.9916 39.9832 51.2247L40.3801 52.1425C40.925 51.9069 41.3524 51.7122 41.6577 51.5595L41.2105 50.6651ZM39.6816 51.6836V53.5952H40.6816V51.6836H39.6816ZM39.6816 53.5952C39.6816 56.9158 39.485 59.9534 39.0934 62.7094L40.0834 62.8501C40.4828 60.0398 40.6816 56.9544 40.6816 53.5952H39.6816ZM39.0929 62.7123C38.7165 65.4777 38.1035 67.8339 37.2615 69.789L38.1799 70.1846C39.0664 68.1261 39.6985 65.6776 40.0838 62.8472L39.0929 62.7123ZM37.261 69.7903C36.4225 71.7514 35.3255 73.2529 33.9821 74.3193L34.6038 75.1026C36.1022 73.9131 37.2904 72.2652 38.1804 70.1834L37.261 69.7903ZM33.9801 74.3209C32.674 75.3685 31.0673 75.9028 29.1294 75.9028V76.9028C31.2637 76.9028 33.0994 76.3092 34.6058 75.101L33.9801 74.3209ZM29.1294 75.9028C28.3319 75.9028 27.5457 75.7477 26.7677 75.4338L26.3935 76.3611C27.2854 76.721 28.1983 76.9028 29.1294 76.9028V75.9028ZM26.7606 75.431C25.996 75.1359 25.3086 74.6791 24.6968 74.0537L23.9819 74.753C24.6885 75.4752 25.4952 76.0145 26.4005 76.3639L26.7606 75.431ZM24.7007 74.0577C24.1065 73.4366 23.611 72.6505 23.2206 71.6885L22.294 72.0645C22.7239 73.1239 23.2831 74.0224 23.978 74.7489L24.7007 74.0577ZM23.222 71.6919C22.855 70.7676 22.6641 69.661 22.6641 68.3608H21.6641C21.6641 69.756 21.8686 70.9932 22.2926 72.061L23.222 71.6919ZM22.6641 68.3608C22.6641 66.9441 22.9232 65.5939 23.4409 64.3067L22.5132 63.9336C21.9469 65.3416 21.6641 66.8186 21.6641 68.3608H22.6641ZM23.4384 64.3128C23.9783 63.02 24.6818 61.8046 25.5499 60.666L24.7547 60.0596C23.8358 61.2648 23.0891 62.5542 22.5157 63.9274L23.4384 64.3128ZM25.5494 60.6667C26.4362 59.5082 27.445 58.4419 28.5767 57.4678L27.9243 56.7099C26.7415 57.728 25.6849 58.8444 24.7553 60.0589L25.5494 60.6667ZM28.5794 57.4655C29.7225 56.467 30.8861 55.5637 32.0701 54.7552L31.5061 53.9294C30.2877 54.7615 29.0929 55.6892 27.9216 56.7123L28.5794 57.4655ZM32.0677 54.7568C33.2699 53.9456 34.448 53.2375 35.602 52.6317L35.1372 51.7463C33.9475 52.3709 32.7379 53.0983 31.5084 53.9278L32.0677 54.7568ZM35.602 52.6317C36.7657 52.0207 37.8009 51.5215 38.7087 51.1324L38.3148 50.2133C37.3768 50.6153 36.3173 51.1267 35.1372 51.7463L35.602 52.6317ZM39.0116 50.6631C38.9822 49.1463 38.9159 47.6294 38.8128 46.1126L37.8151 46.1804C37.9171 47.6811 37.9827 49.1819 38.0118 50.6826L39.0116 50.6631ZM38.8128 46.1129C38.7111 44.6011 38.6602 43.0523 38.6602 41.4663H37.6602C37.6602 43.0737 37.7118 44.645 37.8151 46.1801L38.8128 46.1129ZM38.6602 41.4663C38.6602 39.9917 38.7469 38.5774 38.9198 37.223L37.9279 37.0964C37.7492 38.4958 37.6602 39.9526 37.6602 41.4663H38.6602ZM38.9192 37.2275C39.1071 35.8541 39.3596 34.5785 39.6758 33.4001L38.7099 33.1409C38.3816 34.3648 38.1214 35.6821 37.9284 37.0919L38.9192 37.2275ZM38.9472 32.835C38.397 33.1454 37.7869 33.4366 37.1158 33.7078L37.4906 34.6349C38.1965 34.3496 38.8462 34.0401 39.4385 33.706L38.9472 32.835ZM37.1123 33.7093C36.4501 33.9828 35.7506 34.2424 35.0138 34.4881L35.33 35.4367C36.0873 35.1843 36.8087 34.9166 37.4941 34.6335L37.1123 33.7093ZM35.0138 34.4881C34.2723 34.7352 33.5086 34.9752 32.7227 35.2081L33.0068 36.1669C33.8029 35.931 34.5773 35.6876 35.33 35.4367L35.0138 34.4881ZM32.7202 35.2088C31.9458 35.4426 31.1787 35.6691 30.419 35.8882L30.6962 36.8491C31.4599 36.6288 32.231 36.4011 33.0092 36.1662L32.7202 35.2088ZM30.4179 35.8886C29.244 36.2304 28.1695 36.6106 27.1957 37.0301L27.5914 37.9485C28.5219 37.5476 29.5568 37.1808 30.6974 36.8487L30.4179 35.8886ZM27.1992 37.0286C26.2284 37.4381 25.3829 37.9206 24.6684 38.4798L25.2847 39.2673C25.9179 38.7718 26.6837 38.3314 27.5879 37.9499L27.1992 37.0286ZM24.6684 38.4798C23.9484 39.0433 23.3756 39.6926 22.9592 40.4293L23.8298 40.9213C24.1752 40.3103 24.6571 39.7585 25.2847 39.2673L24.6684 38.4798ZM22.9552 40.4365C22.5437 41.1937 22.3452 42.0544 22.3452 43.0044H23.3452C23.3452 42.1966 23.5129 41.5045 23.8338 40.914L22.9552 40.4365ZM22.3452 43.0044C22.3452 44.0933 22.5553 45.0524 23.0006 45.8604L23.8764 45.3778C23.5306 44.7503 23.3452 43.9663 23.3452 43.0044H22.3452ZM23.0006 45.8604C23.4298 46.6394 23.9909 47.2827 24.6842 47.7825L25.269 46.9714C24.7025 46.563 24.2382 46.0344 23.8764 45.3778L23.0006 45.8604ZM24.6949 47.7901C25.3892 48.2635 26.1603 48.6089 27.0044 48.8277L27.2554 47.8598C26.5174 47.6684 25.8529 47.3693 25.2582 46.9638L24.6949 47.7901ZM27.0149 48.8303C27.8565 49.0293 28.6934 49.1294 29.5249 49.1294V48.1294C28.7744 48.1294 28.0146 48.0391 27.2449 47.8572L27.0149 48.8303ZM29.5249 49.1294C29.6305 49.1294 29.6823 49.1591 29.7262 49.2074L30.4662 48.5348C30.2171 48.2608 29.8881 48.1294 29.5249 48.1294V49.1294ZM29.7426 49.2246C29.8071 49.2891 29.8379 49.3584 29.8379 49.4644H30.8379C30.8379 49.1016 30.7076 48.7754 30.4497 48.5175L29.7426 49.2246ZM29.8379 49.4644C29.8379 49.5558 29.8109 49.6207 29.7364 49.689L30.4121 50.4262C30.6891 50.1722 30.8379 49.8416 30.8379 49.4644H29.8379ZM29.7379 49.6876C29.6626 49.7561 29.5974 49.7773 29.5249 49.7773V50.7773C29.8625 50.7773 30.1636 50.6521 30.4106 50.4276L29.7379 49.6876ZM29.5249 49.7773C28.576 49.7773 27.6251 49.6449 26.6712 49.3783L26.4021 50.3414C27.4403 50.6315 28.4816 50.7773 29.5249 50.7773V49.7773ZM26.6796 49.3808C25.7515 49.1037 24.918 48.6897 24.1755 48.1397L23.5803 48.9433C24.4199 49.5652 25.3588 50.0301 26.3936 50.339L26.6796 49.3808ZM24.1803 48.1433C23.4476 47.587 22.8485 46.8872 22.3827 46.0379L21.5059 46.5187C22.0363 47.4858 22.7262 48.2949 23.5756 48.9397L24.1803 48.1433ZM22.3827 46.0379C21.9321 45.2161 21.6973 44.2325 21.6973 43.0703H20.6973C20.6973 44.369 20.9605 45.5241 21.5059 46.5187L22.3827 46.0379ZM21.6973 43.0703C21.6973 42.0686 21.8958 41.196 22.2801 40.4406L21.3888 39.9871C20.9235 40.9017 20.6973 41.9334 20.6973 43.0703H21.6973ZM22.2786 40.4436C22.6862 39.6555 23.2518 38.9516 23.9818 38.3318L23.3346 37.5695C22.5118 38.2681 21.8616 39.073 21.3904 39.9842L22.2786 40.4436ZM23.9818 38.3318C24.717 37.7077 25.6133 37.1525 26.6771 36.6702L26.2643 35.7595C25.1309 36.2733 24.1522 36.8754 23.3346 37.5695L23.9818 38.3318ZM26.6771 36.6702C27.7504 36.1837 28.9427 35.7523 30.2555 35.3772L29.9808 34.4157C28.6276 34.8024 27.3883 35.2499 26.2643 35.7595L26.6771 36.6702ZM30.2565 35.377C31.2284 35.0972 32.193 34.8026 33.1503 34.4934L32.8429 33.5418C31.8959 33.8478 30.9415 34.1392 29.9798 34.416L30.2565 35.377ZM33.1503 34.4934C34.1096 34.1834 35.0184 33.8658 35.8765 33.5403L35.5219 32.6053C34.6808 32.9243 33.7879 33.2365 32.8429 33.5418L33.1503 34.4934ZM35.8808 33.5386C36.7561 33.1974 37.5601 32.8477 38.2922 32.4891L37.8523 31.591C37.1489 31.9356 36.3709 32.2743 35.5176 32.6069L35.8808 33.5386ZM38.2995 32.4854C39.0384 32.1084 39.6811 31.7116 40.2234 31.2934L39.6126 30.5016C39.1294 30.8743 38.5416 31.2392 37.845 31.5947L38.2995 32.4854ZM40.3888 31.0656C40.9661 29.4493 41.5749 28.2435 42.2044 27.4224L41.4108 26.8139C40.6926 27.7507 40.0417 29.0644 39.4471 30.7293L40.3888 31.0656ZM42.2068 27.4192C42.8597 26.5534 43.3742 26.2778 43.7412 26.2778V25.2778C42.8777 25.2778 42.1032 25.8958 41.4084 26.8171L42.2068 27.4192ZM43.7412 26.2778C43.7983 26.2778 43.8742 26.2904 43.973 26.33L44.3444 25.4015C44.1502 25.3238 43.9478 25.2778 43.7412 25.2778V26.2778ZM44.0271 26.3481C44.1097 26.3706 44.1884 26.4122 44.266 26.4811L44.9303 25.7337C44.7442 25.5683 44.5299 25.4487 44.2903 25.3833L44.0271 26.3481ZM44.3114 26.517C44.3738 26.5607 44.4384 26.6323 44.4957 26.7564L45.4037 26.3373C45.2852 26.0806 45.1155 25.8592 44.8849 25.6978L44.3114 26.517ZM44.4957 26.7564C44.5451 26.8634 44.5815 27.0215 44.5815 27.25H45.5815C45.5815 26.9219 45.5301 26.6112 45.4037 26.3373L44.4957 26.7564ZM44.5815 27.25C44.5815 27.7246 44.3288 28.3455 43.6844 29.1299L44.4572 29.7646C45.1605 28.9084 45.5815 28.0645 45.5815 27.25H44.5815ZM43.6844 29.1299C43.0455 29.9078 42.1651 30.7069 41.0317 31.5247L41.6168 32.3357C42.7978 31.4835 43.7485 30.6274 44.4572 29.7646L43.6844 29.1299ZM38.3358 51.9495C37.4692 52.3231 36.5033 52.7989 35.4391 53.3753L35.9154 54.2546C36.9606 53.6884 37.899 53.2267 38.7316 52.8679L38.3358 51.9495ZM35.4391 53.3753C34.3666 53.9562 33.2744 54.6326 32.1624 55.4036L32.7322 56.2254C33.8174 55.4729 34.8785 54.8162 35.9154 54.2546L35.4391 53.3753ZM32.1598 55.4054C31.0596 56.1784 29.9828 57.0325 28.9294 57.9673L29.5931 58.7153C30.6197 57.8044 31.6669 56.9739 32.7347 56.2235L32.1598 55.4054ZM28.9267 57.9697C27.8801 58.9116 26.937 59.9219 26.098 61.0006L26.8874 61.6146C27.689 60.5839 28.5915 59.6167 29.5957 58.713L28.9267 57.9697ZM26.0933 61.0067C25.2644 62.1069 24.5917 63.2627 24.0769 64.4739L24.9973 64.865C25.4786 63.7325 26.1096 62.647 26.892 61.6085L26.0933 61.0067ZM24.0741 64.4808C23.5667 65.7262 23.312 67.0133 23.312 68.3389H24.312C24.312 67.1449 24.5407 65.9857 25.0002 64.8581L24.0741 64.4808ZM23.312 68.3389C23.312 69.4551 23.4724 70.4553 23.8063 71.3297L24.7405 70.973C24.4592 70.2361 24.312 69.3614 24.312 68.3389H23.312ZM23.8063 71.3297C24.1338 72.1873 24.5764 72.9199 25.1407 73.5165L25.8671 72.8293C25.4061 72.3418 25.0283 71.7268 24.7405 70.973L23.8063 71.3297ZM25.1455 73.5215C25.7185 74.1104 26.3696 74.5542 27.098 74.8456L27.4694 73.9171C26.8794 73.6811 26.344 73.3193 25.8623 72.8242L25.1455 73.5215ZM27.0928 74.8435C27.8249 75.1459 28.5781 75.2988 29.3491 75.2988V74.2988C28.7139 74.2988 28.0901 74.1735 27.4746 73.9192L27.0928 74.8435ZM29.3491 75.2988C30.6464 75.2988 31.8092 74.993 32.8203 74.367L32.294 73.5168C31.4594 74.0334 30.4835 74.2988 29.3491 74.2988V75.2988ZM32.8154 74.37C33.8089 73.7708 34.6587 72.9324 35.3682 71.8682L34.5361 71.3135C33.8979 72.2708 33.1511 72.9997 32.2989 73.5137L32.8154 74.37ZM35.3635 71.8751C36.0844 70.832 36.6753 69.5927 37.1413 68.1644L36.1907 67.8542C35.7486 69.2091 35.1968 70.3575 34.5408 71.3065L35.3635 71.8751ZM37.1409 68.1659C37.6042 66.761 37.976 65.2122 38.2578 63.5212L37.2715 63.3568C36.9967 65.0055 36.6361 66.5036 36.1912 67.8527L37.1409 68.1659ZM38.2577 63.5219C38.5392 61.8478 38.7388 60.0727 38.8569 58.197L37.8589 58.1341C37.7427 59.9791 37.5467 61.7196 37.2716 63.3561L38.2577 63.5219ZM38.8569 58.1967C38.9748 56.3109 39.0337 54.3815 39.0337 52.4087H38.0337C38.0337 54.3616 37.9754 56.2702 37.8589 58.1343L38.8569 58.1967ZM79.1172 54.0347L78.7084 53.7467L78.7041 53.753L79.1172 54.0347ZM74.5908 58.4512L74.8656 58.8689L74.8694 58.8664L74.5908 58.4512ZM70.6357 60.4727L70.8191 60.9378L70.823 60.9363L70.6357 60.4727ZM65.3403 61.8569L65.2611 61.3633L65.2599 61.3634L65.3403 61.8569ZM57.3862 61.9229L57.4561 61.4277L57.4512 61.4271L57.3862 61.9229ZM53.8267 61.1318L53.9793 60.6557L53.9754 60.6545L53.8267 61.1318ZM48.0918 57.792L47.7279 58.1349L47.7314 58.1385L48.0918 57.792ZM46.3779 55.1772L45.9155 55.3677L45.9191 55.3759L46.3779 55.1772ZM47.5425 46.3003L47.147 45.9944L47.1452 45.9967L47.5425 46.3003ZM52.8599 42.6748L53.0329 43.1439L53.796 42.8625L53.2003 42.3086L52.8599 42.6748ZM51.2339 33.688L50.7954 33.4477L50.7929 33.4524L51.2339 33.688ZM57.2983 29.1177L57.4429 29.5963L57.4461 29.5954L57.2983 29.1177ZM66.395 28.9419L66.2711 29.4263L66.2724 29.4266L66.395 28.9419ZM69.647 30.1504L69.4091 30.5902L69.412 30.5918L69.647 30.1504ZM71.8662 31.7324L71.5126 32.086L71.5172 32.0904L71.8662 31.7324ZM73.9536 34.6108L73.4854 34.7864L73.488 34.793L73.9536 34.6108ZM74.1733 35.1821L74.6584 35.0609L74.6538 35.0422L74.6477 35.024L74.1733 35.1821ZM73.9536 35.9951L73.585 35.6573L73.5836 35.6588L73.9536 35.9951ZM72.877 36.083L72.5448 36.4567L72.5665 36.476L72.5902 36.4926L72.877 36.083ZM72.5913 35.6216H72.0913V35.6968L72.1134 35.7686L72.5913 35.6216ZM72.4155 35.1602L71.9512 35.3459L71.9547 35.3542L72.4155 35.1602ZM70.5918 32.8091L70.2491 33.1732L70.2546 33.1784L70.2603 33.1834L70.5918 32.8091ZM68.6582 31.5127L68.428 31.9566L68.4346 31.9599L68.6582 31.5127ZM57.5181 30.7437L57.3583 30.2699L57.3566 30.2704L57.5181 30.7437ZM54.4199 32.4136L54.7407 32.7971L54.7414 32.7966L54.4199 32.4136ZM54.7495 42.0815L54.4628 42.4912L54.6517 42.6234L54.875 42.5655L54.7495 42.0815ZM59.2319 41.3345L59.2753 41.8327L59.286 41.8315L59.2319 41.3345ZM61.0557 41.2026L61.0692 41.7026L61.0819 41.7019L61.0557 41.2026ZM64.1978 41.3125L64.1048 41.804L64.1177 41.8061L64.1978 41.3125ZM65.582 41.73L65.3584 42.1772L65.3686 42.1823L65.379 42.1869L65.582 41.73ZM66.5049 42.4331L66.1048 42.7332L66.1124 42.7429L66.5049 42.4331ZM65.582 45.1357L65.3518 44.6918L65.345 44.6955L65.582 45.1357ZM64.1978 45.6191L64.2907 46.1106L64.3034 46.1078L64.1978 45.6191ZM58.1772 45.2676L58.061 45.7539L58.0633 45.7544L58.1772 45.2676ZM56.2217 44.6743L56.0378 45.1394L56.0473 45.1429L56.2217 44.6743ZM54.5078 43.8394L54.7651 43.4106L54.5752 43.2967L54.3633 43.3607L54.5078 43.8394ZM49.2124 46.8936L49.582 47.2303L49.5838 47.2283L49.2124 46.8936ZM47.96 54.6499L47.5007 54.8479L47.5051 54.8574L47.96 54.6499ZM51.8271 58.5391L51.5918 58.9803L51.6006 58.9848L51.8271 58.5391ZM57.8477 60.3188L57.7816 60.8145L57.7881 60.8153L57.8477 60.3188ZM63.165 60.4507L63.1983 60.9497L63.2093 60.9487L63.165 60.4507ZM65.0767 60.209L64.9983 59.7152L64.9945 59.7158L65.0767 60.209ZM69.9326 58.9346L70.1183 59.3988L70.1208 59.3978L69.9326 58.9346ZM73.5581 57.0889L73.8312 57.5077L73.8327 57.5067L73.5581 57.0889ZM76.1069 55.0454L76.4643 55.3952L76.4679 55.3914L76.1069 55.0454ZM77.7109 53.1338L77.3013 52.8471L77.2998 52.8492L77.7109 53.1338ZM78.5679 51.7056L78.1171 51.4892L78.1135 51.4966L78.1102 51.5042L78.5679 51.7056ZM78.8315 51.1343L78.3572 50.9762L78.3315 51.0531V51.1343H78.8315ZM79.1172 50.7388L79.3946 51.1549L79.4039 51.1484L79.1172 50.7388ZM64.1318 42.9165L64.0338 43.4068L64.0474 43.4095L64.0611 43.4115L64.1318 42.9165ZM63.1211 42.8066L63.0827 43.3052L63.0923 43.3059L63.1019 43.3063L63.1211 42.8066ZM59.4956 42.8506L59.5239 43.3499L59.5332 43.3492L59.4956 42.8506ZM56.8369 43.2021L56.743 42.711L54.9658 43.0508L56.6653 43.6718L56.8369 43.2021ZM59.4517 43.8833L59.3635 44.3755L59.3718 44.3769L59.4517 43.8833ZM79.9065 51.5404C79.9111 51.522 79.9126 51.5222 79.8969 51.5633C79.8845 51.5958 79.8662 51.6416 79.8414 51.702C79.7918 51.8223 79.72 51.9912 79.6252 52.2099L80.5428 52.6075C80.6384 52.3868 80.7131 52.2114 80.766 52.0827C80.8111 51.9733 80.8583 51.8562 80.8767 51.7829L79.9065 51.5404ZM79.6252 52.2099C79.4542 52.6044 79.1537 53.1147 78.7084 53.7467L79.5259 54.3226C79.9888 53.6656 80.3329 53.0919 80.5428 52.6075L79.6252 52.2099ZM78.7041 53.753C78.2837 54.3695 77.7161 55.0592 76.9957 55.8229L77.7231 56.5091C78.4675 55.7201 79.0717 54.9889 79.5303 54.3163L78.7041 53.753ZM76.9957 55.8229C76.2944 56.5663 75.402 57.3047 74.3122 58.036L74.8694 58.8664C76.0062 58.1035 76.9595 57.3185 77.7231 56.5091L76.9957 55.8229ZM74.316 58.0335C73.2358 58.7441 71.9481 59.4034 70.4485 60.009L70.823 60.9363C72.3703 60.3114 73.7192 59.6231 74.8656 58.8689L74.316 58.0335ZM70.4524 60.0075C68.9694 60.5921 67.2404 61.0454 65.2611 61.3633L65.4196 62.3506C67.4539 62.0239 69.2552 61.5544 70.8191 60.9378L70.4524 60.0075ZM65.2599 61.3634C63.9409 61.5785 62.5544 61.6865 61.0996 61.6865V62.6865C62.6038 62.6865 64.0444 62.5748 65.4208 62.3504L65.2599 61.3634ZM61.0996 61.6865C59.893 61.6865 58.6786 61.6003 57.4561 61.4278L57.3163 62.4179C58.5841 62.5969 59.8452 62.6865 61.0996 62.6865V61.6865ZM57.4512 61.4271C56.2494 61.2697 55.0923 61.0124 53.9793 60.6557L53.6741 61.608C54.8462 61.9837 56.0621 62.2537 57.3213 62.4186L57.4512 61.4271ZM53.9754 60.6545C52.88 60.313 51.8583 59.8729 50.9093 59.3346L50.4159 60.2044C51.4298 60.7795 52.5175 61.2475 53.6779 61.6092L53.9754 60.6545ZM50.9093 59.3346C49.967 58.8002 49.149 58.1701 48.4522 57.4454L47.7314 58.1385C48.4994 58.9373 49.3953 59.6256 50.4159 60.2044L50.9093 59.3346ZM48.4557 57.4491C47.7786 56.7305 47.2391 55.908 46.8368 54.9786L45.9191 55.3759C46.3664 56.4094 46.9695 57.33 47.7279 58.1349L48.4557 57.4491ZM46.8403 54.9869C46.458 54.0585 46.2627 53.0183 46.2627 51.8594H45.2627C45.2627 53.1321 45.4776 54.3039 45.9156 55.3676L46.8403 54.9869ZM46.2627 51.8594C46.2627 49.804 46.8267 48.0605 47.9398 46.6039L47.1452 45.9967C45.8852 47.6456 45.2627 49.6082 45.2627 51.8594H46.2627ZM47.938 46.6062C49.068 45.1454 50.7534 43.9845 53.0329 43.1439L52.6869 42.2057C50.2789 43.0936 48.4193 44.3497 47.147 45.9944L47.938 46.6062ZM53.2003 42.3086C52.4098 41.5736 51.83 40.7716 51.4503 39.9036L50.5341 40.3044C50.9747 41.3114 51.64 42.2233 52.5194 43.041L53.2003 42.3086ZM51.4503 39.9036C51.0674 39.0285 50.877 38.1225 50.877 37.1816H49.877C49.877 38.2622 50.0967 39.3045 50.5341 40.3044L51.4503 39.9036ZM50.877 37.1816C50.877 36.0007 51.1439 34.9176 51.6749 33.9236L50.7929 33.4524C50.1813 34.5971 49.877 35.843 49.877 37.1816H50.877ZM51.6724 33.9283C52.2226 32.9241 52.9804 32.0542 53.9527 31.3181L53.3491 30.5208C52.2706 31.3374 51.4171 32.3132 50.7954 33.4477L51.6724 33.9283ZM53.9527 31.3181C54.9246 30.5822 56.0854 30.0064 57.4429 29.5963L57.1538 28.639C55.6987 29.0786 54.4279 29.704 53.3491 30.5208L53.9527 31.3181ZM57.4461 29.5954C58.8133 29.1725 60.3155 28.9585 61.9565 28.9585V27.9585C60.2284 27.9585 58.6252 28.1839 57.1506 28.64L57.4461 29.5954ZM61.9565 28.9585C63.626 28.9585 65.062 29.117 66.2711 29.4263L66.5189 28.4575C65.2085 28.1223 63.6856 27.9585 61.9565 27.9585V28.9585ZM66.2724 29.4266C67.5178 29.7415 68.5608 30.1313 69.4091 30.5902L69.8849 29.7106C68.9461 29.2027 67.8211 28.7868 66.5176 28.4572L66.2724 29.4266ZM69.412 30.5918C70.2879 31.0579 70.9844 31.5577 71.5127 32.086L72.2198 31.3789C71.6055 30.7646 70.8224 30.2096 69.8819 29.709L69.412 30.5918ZM71.5172 32.0904C72.0869 32.6459 72.5238 33.1546 72.8363 33.6166L73.6646 33.0563C73.3033 32.5221 72.8174 31.9615 72.2153 31.3744L71.5172 32.0904ZM72.8363 33.6166C73.1627 34.099 73.3732 34.4869 73.4854 34.7864L74.4218 34.4353C74.2704 34.0316 74.0121 33.5699 73.6646 33.0563L72.8363 33.6166ZM73.488 34.793C73.5538 34.9612 73.6046 35.092 73.6407 35.1858C73.6588 35.2328 73.6729 35.2698 73.6832 35.2973C73.6883 35.311 73.6923 35.3217 73.6952 35.3297C73.6984 35.3384 73.6993 35.3412 73.699 35.3402L74.6477 35.024C74.6278 34.9643 74.5475 34.7565 74.4192 34.4286L73.488 34.793ZM73.6883 35.3034C73.6877 35.301 73.6898 35.3091 73.6919 35.3318C73.6939 35.3537 73.6953 35.3839 73.6953 35.4238H74.6953C74.6953 35.3045 74.6875 35.1772 74.6584 35.0609L73.6883 35.3034ZM73.6953 35.4238C73.6953 35.4837 73.6763 35.5577 73.585 35.6573L74.3222 36.333C74.5532 36.081 74.6953 35.7741 74.6953 35.4238H73.6953ZM73.5836 35.6588C73.546 35.7002 73.4908 35.7368 73.3604 35.7368V36.7368C73.7279 36.7368 74.0683 36.6123 74.3236 36.3315L73.5836 35.6588ZM73.3604 35.7368C73.289 35.7368 73.2277 35.7182 73.1637 35.6734L72.5902 36.4926C72.8192 36.6529 73.0801 36.7368 73.3604 36.7368V35.7368ZM73.2091 35.7093C73.1542 35.6605 73.1044 35.5891 73.0692 35.4745L72.1134 35.7686C72.1954 36.0349 72.336 36.2711 72.5448 36.4567L73.2091 35.7093ZM73.0913 35.6216C73.0913 35.5546 73.0777 35.5001 73.0745 35.487C73.0688 35.4633 73.0621 35.4413 73.0565 35.4239C73.0452 35.3884 73.0306 35.3481 73.0146 35.3063C72.9822 35.2213 72.9357 35.107 72.8763 34.9661L71.9547 35.3542C72.0126 35.4916 72.0539 35.5934 72.0801 35.6623C72.0935 35.6973 72.1008 35.7183 72.1041 35.7287C72.1059 35.7341 72.1047 35.7311 72.1026 35.7226C72.1016 35.7182 72.0993 35.7085 72.0972 35.6952C72.0954 35.6842 72.0913 35.6572 72.0913 35.6216H73.0913ZM72.8798 34.9745C72.7416 34.6291 72.5113 34.2407 72.2072 33.8148L71.3934 34.3961C71.6752 34.7906 71.8551 35.1053 71.9513 35.3459L72.8798 34.9745ZM72.2072 33.8148C71.8861 33.3654 71.4549 32.9056 70.9233 32.4348L70.2603 33.1834C70.7541 33.6208 71.1286 34.0253 71.3934 34.3961L72.2072 33.8148ZM70.9345 32.445C70.3924 31.9348 69.7043 31.4767 68.8818 31.0655L68.4346 31.9599C69.1941 32.3397 69.7951 32.7459 70.2491 33.1732L70.9345 32.445ZM68.8884 31.0688C68.0533 30.6358 67.0685 30.2865 65.9404 30.0158L65.707 30.9881C66.7762 31.2448 67.6811 31.5693 68.428 31.9566L68.8884 31.0688ZM65.9404 30.0158C64.7939 29.7406 63.464 29.6064 61.9565 29.6064V30.6064C63.4081 30.6064 64.6563 30.736 65.707 30.9881L65.9404 30.0158ZM61.9565 29.6064C60.2174 29.6064 58.6816 29.8236 57.3583 30.2699L57.6778 31.2174C58.8741 30.8141 60.2973 30.6064 61.9565 30.6064V29.6064ZM57.3566 30.2704C56.066 30.7108 54.9755 31.2945 54.0985 32.0306L54.7414 32.7966C55.5049 32.1557 56.4799 31.6261 57.6795 31.2169L57.3566 30.2704ZM54.0991 32.03C53.2456 32.7439 52.5967 33.5541 52.1663 34.4627L53.07 34.8908C53.4306 34.1295 53.9829 33.4309 54.7407 32.7971L54.0991 32.03ZM52.1663 34.4627C51.7437 35.3548 51.5249 36.2479 51.5249 37.1377H52.5249C52.5249 36.4162 52.7016 35.6687 53.07 34.8908L52.1663 34.4627ZM51.5249 37.1377C51.5249 38.1759 51.7814 39.1657 52.2885 40.1007L53.1675 39.6239C52.7371 38.8304 52.5249 38.0038 52.5249 37.1377H51.5249ZM52.2885 40.1007C52.7975 41.0392 53.5263 41.8356 54.4628 42.4912L55.0362 41.6719C54.215 41.097 53.596 40.414 53.1675 39.6239L52.2885 40.1007ZM54.875 42.5655C55.6507 42.3644 56.4105 42.2068 57.1546 42.0923L57.0026 41.104C56.2233 41.2239 55.4304 41.3885 54.624 41.5975L54.875 42.5655ZM57.1546 42.0923C57.907 41.9766 58.6137 41.8901 59.2752 41.8326L59.1886 40.8364C58.5025 40.896 57.7737 40.9853 57.0026 41.104L57.1546 42.0923ZM59.286 41.8315C59.9495 41.7594 60.5436 41.7167 61.0692 41.7025L61.0422 40.7028C60.4838 40.7179 59.862 40.763 59.1779 40.8374L59.286 41.8315ZM61.0819 41.7019C61.6342 41.6729 62.0787 41.6587 62.418 41.6587V40.6587C62.0541 40.6587 61.5904 40.6738 61.0294 40.7033L61.0819 41.7019ZM62.418 41.6587C63.0364 41.6587 63.5981 41.7079 64.1048 41.8038L64.2907 40.8212C63.7135 40.712 63.0886 40.6587 62.418 40.6587V41.6587ZM64.1177 41.8061C64.6234 41.8881 65.0337 42.0148 65.3584 42.1772L65.8056 41.2828C65.3686 41.0643 64.8561 40.9127 64.2778 40.8189L64.1177 41.8061ZM65.379 42.1869C65.7107 42.3343 65.9449 42.5198 66.1049 42.7331L66.9049 42.1331C66.6254 41.7604 66.2443 41.4772 65.7851 41.2731L65.379 42.1869ZM66.1124 42.7429C66.2601 42.9299 66.3345 43.1421 66.3345 43.3999H67.3345C67.3345 42.9252 67.1891 42.4929 66.8973 42.1233L66.1124 42.7429ZM66.3345 43.3999C66.3345 43.6579 66.2597 43.8823 66.1049 44.0887L66.9049 44.6887C67.1895 44.3092 67.3345 43.8743 67.3345 43.3999H66.3345ZM66.1049 44.0887C65.9389 44.3099 65.6949 44.514 65.3519 44.6919L65.8122 45.5796C66.2602 45.3473 66.6314 45.0534 66.9049 44.6887L66.1049 44.0887ZM65.345 44.6955C65.0151 44.8731 64.6004 45.0205 64.0921 45.1304L64.3034 46.1078C64.8791 45.9834 65.3872 45.8085 65.8191 45.576L65.345 44.6955ZM64.1048 45.1279C63.5981 45.2237 63.0364 45.2729 62.418 45.2729V46.2729C63.0886 46.2729 63.7135 46.2196 64.2907 46.1104L64.1048 45.1279ZM62.418 45.2729C61.7357 45.2729 61.0456 45.2303 60.3474 45.1448L60.2259 46.1374C60.9632 46.2277 61.694 46.2729 62.418 46.2729V45.2729ZM60.3474 45.1448C59.6471 45.0591 58.9617 44.9377 58.2912 44.7807L58.0633 45.7544C58.7697 45.9198 59.4906 46.0474 60.2259 46.1374L60.3474 45.1448ZM58.2935 44.7813C57.6388 44.6247 57.0064 44.4328 56.396 44.2057L56.0473 45.1429C56.6968 45.3846 57.368 45.5882 58.061 45.7539L58.2935 44.7813ZM56.4055 44.2093C55.7978 43.9691 55.2515 43.7025 54.7651 43.4106L54.2506 44.2681C54.7895 44.5915 55.3858 44.8815 56.0379 45.1393L56.4055 44.2093ZM54.3633 43.3607C51.9768 44.0811 50.1213 45.138 48.841 46.5588L49.5838 47.2283C50.7059 45.9831 52.3806 45.0038 54.6523 44.318L54.3633 43.3607ZM48.8428 46.5568C47.5497 47.9761 46.9106 49.7331 46.9106 51.7935H47.9106C47.9106 49.9573 48.4728 48.4477 49.582 47.2303L48.8428 46.5568ZM46.9106 51.7935C46.9106 52.9067 47.1041 53.9275 47.5008 54.8478L48.4191 54.452C48.0834 53.673 47.9106 52.7896 47.9106 51.7935H46.9106ZM47.5051 54.8574C47.9116 55.7487 48.4674 56.5392 49.1705 57.2266L49.8696 56.5116C49.2543 55.91 48.77 55.221 48.4149 54.4424L47.5051 54.8574ZM49.1705 57.2266C49.8662 57.9069 50.6744 58.4909 51.5919 58.9802L52.0624 58.0979C51.2221 57.6497 50.4922 57.1204 49.8696 56.5116L49.1705 57.2266ZM51.6006 58.9848C52.5235 59.4538 53.505 59.8386 54.5444 60.1399L54.8228 59.1794C53.8407 58.8948 52.9179 58.5325 52.0537 58.0933L51.6006 58.9848ZM54.5444 60.1399C55.5803 60.4402 56.6595 60.6649 57.7816 60.8145L57.9137 59.8232C56.8385 59.6799 55.8083 59.4651 54.8228 59.1794L54.5444 60.1399ZM57.7881 60.8153C58.9061 60.9494 60.0173 61.0166 61.1216 61.0166V60.0166C60.0579 60.0166 58.9865 59.9519 57.9072 59.8224L57.7881 60.8153ZM61.1216 61.0166C61.8351 61.0166 62.5274 60.9943 63.1983 60.9496L63.1318 59.9518C62.4844 59.995 61.8143 60.0166 61.1216 60.0166V61.0166ZM63.2093 60.9487C63.8804 60.8891 64.5303 60.8069 65.1589 60.7022L64.9945 59.7158C64.3925 59.8161 63.768 59.8951 63.1208 59.9526L63.2093 60.9487ZM65.155 60.7028C67.0289 60.4054 68.6849 59.9722 70.1183 59.3988L69.7469 58.4703C68.3971 59.0103 66.8158 59.4267 64.9983 59.7152L65.155 60.7028ZM70.1208 59.3978C71.5495 58.8174 72.7879 58.1881 73.8312 57.5077L73.285 56.6701C72.3069 57.308 71.1282 57.9092 69.7444 58.4713L70.1208 59.3978ZM73.8327 57.5067C74.8803 56.8183 75.7597 56.1151 76.4643 55.3951L75.7496 54.6957C75.1066 55.3527 74.2867 56.0118 73.2835 56.671L73.8327 57.5067ZM76.4679 55.3914C77.1534 54.6761 77.7068 54.0181 78.122 53.4184L77.2998 52.8492C76.924 53.392 76.4081 54.0085 75.7459 54.6995L76.4679 55.3914ZM78.1206 53.4205C78.5373 52.8252 78.8448 52.3177 79.0255 51.9069L78.1102 51.5042C77.9687 51.8258 77.7049 52.2705 77.3013 52.8471L78.1206 53.4205ZM79.0186 51.9219C79.1068 51.7382 79.174 51.5963 79.2196 51.4976C79.2421 51.4488 79.2609 51.4072 79.2746 51.3752C79.2812 51.3598 79.2888 51.3416 79.2956 51.3236C79.2988 51.3151 79.3041 51.3004 79.3094 51.2828C79.312 51.274 79.3163 51.2593 79.3202 51.2409C79.3229 51.2281 79.3315 51.1872 79.3315 51.1343H78.3315C78.3315 51.0823 78.34 51.0426 78.3424 51.0314C78.346 51.0147 78.3497 51.0019 78.3516 50.9954C78.3555 50.9824 78.3588 50.9736 78.3593 50.9724C78.3605 50.9691 78.3599 50.971 78.3555 50.9813C78.3472 51.0005 78.3331 51.0322 78.3116 51.0786C78.2693 51.1703 78.2047 51.3067 78.1171 51.4892L79.0186 51.9219ZM79.3059 51.2924C79.3355 51.2035 79.3703 51.1709 79.3945 51.1548L78.8398 50.3227C78.6004 50.4824 78.4448 50.7135 78.3572 50.9762L79.3059 51.2924ZM79.4039 51.1484C79.4679 51.1036 79.5293 51.085 79.6006 51.085V50.085C79.3203 50.085 79.0594 50.1689 78.8305 50.3292L79.4039 51.1484ZM79.6006 51.085C79.7066 51.085 79.7759 51.1158 79.8403 51.1802L80.5474 50.4731C80.2895 50.2153 79.9633 50.085 79.6006 50.085V51.085ZM79.8403 51.1802C79.9115 51.2515 79.9355 51.3162 79.9355 51.3979H80.9355C80.9355 51.0402 80.7984 50.7241 80.5474 50.4731L79.8403 51.1802ZM79.9355 51.3979C79.9355 51.3895 79.9362 51.3964 79.9314 51.4256C79.9268 51.4528 79.919 51.4905 79.9065 51.5404L80.8767 51.7829C80.9077 51.6586 80.9355 51.5211 80.9355 51.3979H79.9355ZM65.6646 43.4219C65.6646 42.9884 65.3099 42.7625 65.0884 42.6603L64.6694 43.5682C64.6984 43.5816 64.7165 43.5923 64.7265 43.5989C64.7367 43.6057 64.7348 43.6059 64.7267 43.5973C64.7183 43.5882 64.702 43.5681 64.6879 43.5355C64.6732 43.5016 64.6646 43.4625 64.6646 43.4219H65.6646ZM65.0884 42.6603C64.8383 42.5448 64.5374 42.4694 64.2025 42.4215L64.0611 43.4115C64.3415 43.4515 64.5387 43.5079 64.6694 43.5682L65.0884 42.6603ZM64.2299 42.4262C63.905 42.3612 63.5408 42.3224 63.1403 42.307L63.1019 43.3063C63.4631 43.3202 63.7727 43.3546 64.0338 43.4068L64.2299 42.4262ZM63.1594 42.3081C62.7654 42.2778 62.3644 42.2627 61.9565 42.2627V43.2627C62.3397 43.2627 62.7151 43.2769 63.0827 43.3052L63.1594 42.3081ZM61.9565 42.2627C61.0811 42.2627 60.2481 42.2924 59.458 42.352L59.5332 43.3492C60.2958 43.2916 61.1035 43.2627 61.9565 43.2627V42.2627ZM59.4673 42.3514C58.6635 42.3969 57.7547 42.5176 56.743 42.711L56.9308 43.6933C57.9113 43.5058 58.775 43.3922 59.5239 43.3498L59.4673 42.3514ZM56.6653 43.6718C57.4595 43.962 58.3598 44.1957 59.3635 44.3755L59.5398 43.3911C58.5806 43.2193 57.7378 42.999 57.0085 42.7325L56.6653 43.6718ZM59.3718 44.3769C60.3944 44.5423 61.4245 44.625 62.4619 44.625V43.625C61.4779 43.625 60.5012 43.5466 59.5315 43.3897L59.3718 44.3769ZM62.4619 44.625C63.3962 44.625 64.1443 44.5527 64.6635 44.3796L64.3473 43.4309C63.9875 43.5508 63.3733 43.625 62.4619 43.625V44.625ZM64.6635 44.3796C64.9031 44.2997 65.1245 44.2031 65.2954 44.0778C65.4612 43.9562 65.6646 43.7415 65.6646 43.4219H64.6646C64.6646 43.278 64.758 43.2318 64.7041 43.2714C64.6553 43.3071 64.5471 43.3643 64.3473 43.4309L64.6635 44.3796Z" fill="#DB2777"/>
</g>
<defs>
<clipPath id="clip0_0_1">
<rect width="100" height="100" fill="white"/>
</clipPath>
</defs>
</svg>
